<svg width="93" height="14" viewBox="0 0 93 14" fill="none" xmlns="http://www.w3.org/2000/svg">
<g clip-path="url(#clip0_914_1498)" filter="url(#filter0_i_914_1498)">
<path d="M3.29049 0V13.8627H0V0H3.29049Z" fill="#FF7000"/>
<path d="M14.3827 4.05889C15.1072 4.89544 15.4698 6.04587 15.4698 7.51002V13.8629H12.1796V7.90229C12.1796 7.17006 11.9902 6.59805 11.6122 6.18641C11.2335 5.77462 10.7298 5.56864 10.1016 5.56864C9.43423 5.56864 8.90492 5.7843 8.51414 6.21592C8.1226 6.64724 7.92721 7.26188 7.92721 8.05923V13.863H4.63672V2.92174H7.92706V4.92152C8.23478 4.26815 8.69329 3.75204 9.30305 3.37257C9.91221 2.99373 10.6273 2.804 11.4483 2.804C12.6798 2.804 13.6578 3.22235 14.3827 4.05889Z" fill="#FF7000"/>
<path d="M24.2081 3.82356C25.0225 4.51644 25.5326 5.43122 25.7378 6.56853H22.6589C22.569 6.12426 22.3672 5.77446 22.0527 5.5193C21.7382 5.2646 21.3439 5.13702 20.8695 5.13702C20.4974 5.13702 20.2151 5.21869 20.023 5.38219C19.8305 5.54584 19.7342 5.77758 19.7342 6.07819C19.7342 6.41846 19.9103 6.67316 20.2634 6.8429C20.616 7.0128 21.1706 7.18317 21.9278 7.35276C22.7484 7.5489 23.4221 7.74831 23.9482 7.95085C24.4741 8.1537 24.9296 8.48367 25.3145 8.94122C25.6995 9.39876 25.892 10.0129 25.892 10.7844C25.892 11.4118 25.7249 11.9674 25.3912 12.4509C25.0575 12.9347 24.5765 13.3137 23.9482 13.5882C23.3196 13.8627 22.5753 14 21.7163 14C20.2665 14 19.1058 13.6733 18.2334 13.0195C17.3608 12.3661 16.8287 11.4313 16.6362 10.2156H19.8112C19.8624 10.6866 20.0581 11.0458 20.3981 11.2944C20.7377 11.5427 21.1772 11.6668 21.7163 11.6668C22.0881 11.6668 22.3704 11.5787 22.5627 11.4021C22.755 11.2255 22.8514 10.9938 22.8514 10.7061C22.8514 10.327 22.675 10.0559 22.3223 9.89207C21.9695 9.72888 21.3951 9.55602 20.5999 9.37268C19.8047 9.20278 19.1504 9.01976 18.6375 8.82363C18.1242 8.6278 17.682 8.31096 17.3099 7.87262C16.9375 7.43459 16.7516 6.83666 16.7516 6.07835C16.7516 5.09813 17.1174 4.30406 17.8484 3.69614C18.5797 3.08821 19.6121 2.78416 20.9464 2.78416C22.306 2.78416 23.3933 3.13099 24.2081 3.82356Z" fill="#FF7000"/>
<path d="M33.7715 10.9805V13.8627H32.2897C31.0323 13.8627 30.0543 13.5459 29.3553 12.9117C28.656 12.2779 28.3065 11.2288 28.3065 9.7648V5.74495H26.8635V2.92174H28.3065V0.235176H31.5971V2.92174H33.7521V5.74495H31.5971V9.82336C31.5971 10.2553 31.6836 10.5556 31.8567 10.7255C32.0301 10.8957 32.3215 10.9805 32.7322 10.9805H33.7715Z" fill="#FF7000"/>
<path d="M41.4449 3.35305C42.0349 3.73252 42.4709 4.24863 42.7532 4.902V2.92174H46.0245V13.8627H42.7532V11.8826C42.4709 12.5363 42.0348 13.0523 41.4449 13.4314C40.8546 13.8106 40.1489 14 39.3281 14C38.4431 14 37.6509 13.7743 36.9519 13.3235C36.2525 12.8727 35.701 12.2224 35.2969 11.3728C34.8927 10.5231 34.6909 9.52962 34.6909 8.392C34.6909 7.2422 34.8927 6.24512 35.2969 5.40186C35.701 4.55892 36.2523 3.91179 36.9519 3.46065C37.6509 3.00981 38.443 2.78416 39.3281 2.78416C40.1489 2.78416 40.8548 2.9739 41.4449 3.35305ZM38.6836 6.43142C38.2537 6.90193 38.0392 7.55577 38.0392 8.39216C38.0392 9.22902 38.2537 9.8827 38.6836 10.3531C39.1133 10.8237 39.6809 11.059 40.3865 11.059C41.0793 11.059 41.6467 10.8172 42.0895 10.3335C42.5319 9.85037 42.7532 9.20294 42.7532 8.39216C42.7532 7.56873 42.5319 6.91848 42.0895 6.44142C41.6466 5.96419 41.0791 5.72558 40.3865 5.72558C39.6809 5.72543 39.1131 5.96076 38.6836 6.43142Z" fill="#FF7000"/>
<path d="M56.3568 10.6668H50.3915L49.2561 13.8629H47.3706L52.3926 0.294205H54.375L59.3777 13.8629H57.4922L56.3568 10.6668ZM55.8564 9.27477L53.3742 2.29429L50.8919 9.27477H55.8564Z" fill="#FFD155"/>
<path d="M66.2667 3.91179C66.9913 4.54596 67.4308 5.3989 67.5849 6.47046H65.9107C65.8336 5.83021 65.574 5.3038 65.1312 4.89216C64.6887 4.48037 64.0954 4.27471 63.3515 4.27471C62.7228 4.27471 62.2322 4.42837 61.8796 4.73538C61.5267 5.0427 61.3506 5.45761 61.3506 5.98075C61.3506 6.37271 61.4689 6.68987 61.7066 6.93145C61.9438 7.17381 62.2386 7.35651 62.5914 7.48066C62.9443 7.60512 63.4284 7.73895 64.0443 7.88261C64.8265 8.06594 65.4587 8.25193 65.9395 8.44135C66.4204 8.63109 66.831 8.93482 67.171 9.35332C67.5106 9.77183 67.681 10.3335 67.681 11.0394C67.681 11.9156 67.3569 12.6278 66.709 13.1769C66.0612 13.7263 65.1987 14.0003 64.121 14.0003C62.8639 14.0003 61.8376 13.6931 61.0423 13.0787C60.2471 12.4643 59.7787 11.6083 59.6375 10.5103H61.3308C61.395 11.164 61.6739 11.6937 62.168 12.0988C62.6618 12.5038 63.3129 12.7067 64.121 12.7067C64.7238 12.7067 65.1952 12.5496 65.5353 12.2357C65.875 11.9218 66.0451 11.5104 66.0451 11.0005C66.0451 10.5823 65.923 10.2492 65.6793 10.0004C65.4355 9.75215 65.1339 9.56273 64.7753 9.43187C64.4158 9.30132 63.9219 9.16406 63.2936 9.02008C62.511 8.83737 61.8856 8.65435 61.4176 8.47102C60.9491 8.288 60.5517 7.99739 60.2245 7.5984C59.8972 7.19973 59.7337 6.66035 59.7337 5.9809C59.7337 5.07893 60.0612 4.35029 60.7151 3.79452C61.3696 3.2389 62.261 2.96109 63.3898 2.96109C64.5829 2.96078 65.5419 3.27794 66.2667 3.91179Z" fill="#FFD155"/>
<path d="M74.3678 12.2943V13.8629H73.0594C71.9821 13.8629 71.1768 13.6015 70.6445 13.0785C70.1122 12.556 69.8458 11.6801 69.8458 10.4513V4.64715H68.2683V3.0982H69.8458V0.411793H71.6163V3.0982H74.3485V4.64715H71.6163V10.4905C71.6163 11.1835 71.7413 11.6568 71.9914 11.9118C72.2417 12.1668 72.6747 12.2943 73.2905 12.2943H74.3678Z" fill="#FFD155"/>
<path d="M79.0302 3.5392C79.697 3.1274 80.4928 2.92174 81.4163 2.92174V4.86296H80.8773C79.8893 4.86296 79.0814 5.12109 78.4529 5.63735C77.8242 6.15393 77.5102 7.00671 77.5102 8.19634V13.8629H75.759V3.0982H77.5102V5.27444C77.8565 4.5294 78.363 3.95099 79.0302 3.5392Z" fill="#FFD155"/>
<path d="M86.8189 3.60603C89.4564 3.60603 91.6021 5.79258 91.6021 8.48023C91.6021 11.1682 89.4564 13.3551 86.8189 13.3551C84.1811 13.3551 82.0353 11.1682 82.0353 8.48023C82.0353 5.79258 84.1811 3.60603 86.8189 3.60603ZM86.8189 2.96078C83.8274 2.96078 81.4021 5.43185 81.4021 8.48023C81.4021 11.5289 83.8274 14.0002 86.8189 14.0002C89.8104 14.0002 92.2354 11.5291 92.2354 8.48023C92.2354 5.43185 89.8104 2.96078 86.8189 2.96078Z" fill="#FFD155"/>
<path d="M85.3802 6.43689C87.0466 6.43689 88.4024 7.81843 88.4024 9.51666C88.4024 11.2146 87.0466 12.5963 85.3802 12.5963C83.7138 12.5963 82.3581 11.2146 82.3581 9.51666C82.3582 7.81827 83.7138 6.43689 85.3802 6.43689ZM85.3802 5.79179C83.3615 5.79179 81.7249 7.45973 81.7249 9.51666C81.7249 11.5736 83.3615 13.2417 85.3802 13.2417C87.3989 13.2417 89.0357 11.5736 89.0357 9.51666C89.0357 7.45973 87.3989 5.79179 85.3802 5.79179Z" fill="#FFD155"/>
<path d="M88.7497 3.32229C88.7497 4.0678 88.1561 4.67244 87.4242 4.67244C86.6929 4.67244 86.0994 4.0678 86.0994 3.32229C86.0994 2.57647 86.6927 1.97182 87.4242 1.97182C88.1561 1.97182 88.7497 2.57647 88.7497 3.32229Z" fill="#FF7000"/>
<path d="M89.9343 10.3776C89.9343 11.1229 89.3407 11.7276 88.6091 11.7276C87.8773 11.7276 87.2839 11.1231 87.2839 10.3776C87.2839 9.6316 87.8773 9.02711 88.6091 9.02711C89.3407 9.02711 89.9343 9.6316 89.9343 10.3776Z" fill="#FF7000"/>
</g>
<defs>
<filter id="filter0_i_914_1498" x="0" y="0" width="92.2354" height="18" filterUnits="userSpaceOnUse" color-interpolation-filters="sRGB">
<feFlood flood-opacity="0" result="BackgroundImageFix"/>
<feBlend mode="normal" in="SourceGraphic" in2="BackgroundImageFix" result="shape"/>
<feColorMatrix in="SourceAlpha" type="matrix" values="0 0 0 0 0 0 0 0 0 0 0 0 0 0 0 0 0 0 127 0" result="hardAlpha"/>
<feOffset dy="4"/>
<feGaussianBlur stdDeviation="2"/>
<feComposite in2="hardAlpha" operator="arithmetic" k2="-1" k3="1"/>
<feColorMatrix type="matrix" values="0 0 0 0 0 0 0 0 0 0 0 0 0 0 0 0 0 0 0.1 0"/>
<feBlend mode="normal" in2="shape" result="effect1_innerShadow_914_1498"/>
</filter>
<clipPath id="clip0_914_1498">
<rect width="92.2353" height="14" fill="white"/>
</clipPath>
</defs>
</svg>
