<svg xmlns="http://www.w3.org/2000/svg" width="45" height="45" viewBox="0 0 45 45">
  <g id="Group_32959" data-name="Group 32959" transform="translate(-67 -546)">
    <rect id="Rectangle_10164" data-name="Rectangle 10164" width="45" height="45" transform="translate(67 546)" fill="#fff"/>
    <path id="Icon_weather-sunrise" data-name="Icon weather-sunrise" d="M3.3,23.664a1.6,1.6,0,0,1,.488-1.123,1.751,1.751,0,0,1,1.139-.472H8.718a1.44,1.44,0,0,1,1.09.472,1.6,1.6,0,0,1,.439,1.123,1.636,1.636,0,0,1-.439,1.172,1.465,1.465,0,0,1-1.09.472H4.927a1.552,1.552,0,0,1-1.139-.488A1.643,1.643,0,0,1,3.3,23.664ZM8.718,10.68a1.563,1.563,0,0,1,.423-1.106A1.731,1.731,0,0,1,10.3,9.085a1.527,1.527,0,0,1,1.106.472l2.668,2.685a1.69,1.69,0,0,1,.456,1.123,1.558,1.558,0,0,1-.439,1.139,1.476,1.476,0,0,1-1.074.456,1.751,1.751,0,0,1-1.139-.472l-2.734-2.62A1.862,1.862,0,0,1,8.718,10.68Zm3.254,21.966a1.426,1.426,0,0,1,.472-1.106,1.536,1.536,0,0,1,1.106-.423H17.83l5.06-4.751a.439.439,0,0,1,.553,0l5.142,4.751h4.507a1.522,1.522,0,0,1,1.123.456,1.465,1.465,0,0,1,.472,1.09,1.611,1.611,0,0,1-1.595,1.595h-5.5a.963.963,0,0,1-.472-.114L23.2,30.449l-3.889,3.694a.825.825,0,0,1-.456.114h-5.3a1.537,1.537,0,0,1-1.123-.472A1.585,1.585,0,0,1,11.973,32.646Zm1.5-8.982a9.189,9.189,0,0,0,1.009,4.3c.033.2.179.293.407.293h3.059a.268.268,0,0,0,.244-.13.308.308,0,0,0-.033-.309,6.433,6.433,0,0,1,.391-8.819,6.435,6.435,0,0,1,4.7-1.92,6.583,6.583,0,0,1,6.59,6.59,6.347,6.347,0,0,1-1.546,4.149.364.364,0,0,0-.049.309c.033.1.114.13.244.13h3.092a.334.334,0,0,0,.374-.293,8.487,8.487,0,0,0,1.041-4.3,9.337,9.337,0,0,0-.781-3.775,10.117,10.117,0,0,0-2.083-3.108A9.927,9.927,0,0,0,27.023,14.7a9.379,9.379,0,0,0-3.775-.765,9.741,9.741,0,0,0-3.791.765,9.911,9.911,0,0,0-3.124,2.083,9.7,9.7,0,0,0-2.1,3.108A9.544,9.544,0,0,0,13.469,23.664ZM21.654,9.085V5.343a1.545,1.545,0,0,1,.456-1.155,1.57,1.57,0,0,1,1.155-.456,1.533,1.533,0,0,1,1.139.456,1.607,1.607,0,0,1,.456,1.172V9.1a1.545,1.545,0,0,1-.456,1.155,1.571,1.571,0,0,1-1.139.456,1.545,1.545,0,0,1-1.155-.456A1.582,1.582,0,0,1,21.654,9.085Zm10.332,4.3a1.689,1.689,0,0,1,.439-1.123l2.636-2.685A1.573,1.573,0,0,1,36.2,9.1,1.583,1.583,0,0,1,37.779,10.7a1.768,1.768,0,0,1-.423,1.188L34.622,14.5a1.688,1.688,0,0,1-1.139.472,1.368,1.368,0,0,1-1.074-.456A1.643,1.643,0,0,1,31.986,13.381Zm4.247,10.283a1.573,1.573,0,0,1,.439-1.123,1.43,1.43,0,0,1,1.074-.472H41.57a1.537,1.537,0,0,1,1.123.472,1.564,1.564,0,0,1,.472,1.123,1.61,1.61,0,0,1-.472,1.155,1.492,1.492,0,0,1-1.123.488H37.746a1.44,1.44,0,0,1-1.09-.472A1.756,1.756,0,0,1,36.233,23.664Z" transform="translate(66.2 549.768)" fill="#f97300" stroke="#fff" stroke-width="2"/>
  </g>
</svg>
